<?xml version="1.0" ?><svg height="512" id="svg2" version="1.1" width="512" xmlns="http://www.w3.org/2000/svg" xmlns:cc="http://creativecommons.org/ns#" xmlns:dc="http://purl.org/dc/elements/1.1/" xmlns:inkscape="http://www.inkscape.org/namespaces/inkscape" xmlns:rdf="http://www.w3.org/1999/02/22-rdf-syntax-ns#" xmlns:sodipodi="http://sodipodi.sourceforge.net/DTD/sodipodi-0.dtd" xmlns:svg="http://www.w3.org/2000/svg"><defs id="defs4"/><g id="layer1" transform="translate(0,-540.36218)"><path d="m 415.99123,721.36623 c -2.6e-4,-2.61792 -1.07807,-5.21962 -2.92923,-7.07077 -1.85115,-1.85116 -4.45285,-2.92897 -7.07077,-2.92923 l -140,0 0,-65 c -0.008,-3.92171 -2.55252,-7.7213 -6.17608,-9.22116 -3.62357,-1.49987 -8.10933,-0.61039 -10.88642,2.15866 l -150,150 c -1.84587,1.85072 -2.91996,4.44861 -2.91996,7.0625 0,2.61389 1.07409,5.21178 2.91996,7.0625 l 150,150 c 2.77709,2.76905 7.26285,3.65853 10.88642,2.15866 3.62356,-1.49986 6.16843,-5.29945 6.17608,-9.22116 l 0,-65 140,0 c 2.61792,-2.6e-4 5.21962,-1.07807 7.07077,-2.92923 1.85116,-1.85115 2.92897,-4.45285 2.92923,-7.07077 z" id="path2991" style="font-size:medium;font-style:normal;font-variant:normal;font-weight:normal;font-stretch:normal;text-indent:0;text-align:start;text-decoration:none;line-height:normal;letter-spacing:normal;word-spacing:normal;text-transform:none;direction:ltr;block-progression:tb;writing-mode:lr-tb;text-anchor:start;baseline-shift:baseline;color:#000000;fill:#222222;fill-opacity:1;fill-rule:nonzero;stroke:none;stroke-width:20;marker:none;visibility:visible;display:inline;overflow:visible;enable-background:accumulate;font-family:Sans;-inkscape-font-specification:Sans"/></g></svg>